<svg width="30" height="31" viewBox="0 0 30 31" fill="none" xmlns="http://www.w3.org/2000/svg">
<path d="M26 9.68213C28.2091 9.68213 30 7.89127 30 5.68213L30 4.68213C30 2.47299 28.2091 0.682128 26 0.682128L20 0.682129C17.7909 0.682129 16 2.47299 16 4.68213L16 5.68213C16 7.89127 17.7909 9.68213 20 9.68213L26 9.68213Z" fill="#72A9F3"/>
<path d="M4 0.682129C1.79086 0.682129 7.8281e-08 2.47299 1.74846e-07 4.68213L6.55671e-07 15.6821C7.52235e-07 17.8913 1.79086 19.6821 4 19.6821L10 19.6821C12.2091 19.6821 14 17.8913 14 15.6821L14 4.68213C14 2.47299 12.2091 0.682128 10 0.682128L4 0.682129Z" fill="#F07575"/>
<path d="M26 30.6821C28.2091 30.6821 30 28.8913 30 26.6821L30 15.6821C30 13.473 28.2091 11.6821 26 11.6821L20 11.6821C17.7909 11.6821 16 13.473 16 15.6821L16 26.6821C16 28.8913 17.7909 30.6821 20 30.6821L26 30.6821Z" fill="#D8C38C"/>
<path d="M10 30.6821C12.2091 30.6821 14 28.8913 14 26.6821L14 25.6821C14 23.473 12.2091 21.6821 10 21.6821L4 21.6821C1.79086 21.6821 2.94668e-07 23.473 7.88851e-07 25.6821L1.01255e-06 26.6821C1.50673e-06 28.8913 1.79086 30.6821 4 30.6821L10 30.6821Z" fill="#99CCB0"/>
</svg>
